<svg width="134" height="149" viewBox="0 0 134 149" fill="none" xmlns="http://www.w3.org/2000/svg">
<path d="M62.0917 84.3596C53.6718 81.253 53.568 64.8835 63.4323 62.9337C85.016 58.6832 81.1975 91.3875 62.0917 84.3596Z" fill="white" fill-opacity="0.38"/>
<path d="M130.584 88.0425C142.874 108.156 118.042 138.919 88.1557 111.141C99.2913 159.786 34.5012 161.194 46.0607 111.141C8.96482 145.362 -23.1491 89.9533 24.3429 73.9868C-23.374 59.4025 9.13349 2.42558 45.399 37.4956C48.2489 36.9367 39.1803 14.8218 52.7421 4.69598C54.0697 3.69943 60.0592 0.909089 61.4257 0.683781C85.3577 -3.31543 92.7267 17.5429 88.1557 37.4913C123.487 3.3918 159.022 57.3097 109.873 73.9825C109.553 75.8673 125.2 79.2425 130.584 88.0382V88.0425ZM62.0917 52.8902C40.2009 56.3695 41.0658 91.8121 62.7663 95.0661C95.7539 100.023 97.2891 47.2965 62.0917 52.8902Z" fill="white" fill-opacity="0.38"/>
<path d="M62.0917 84.3596C53.6718 81.253 53.568 64.8835 63.4323 62.9337C85.016 58.6832 81.1975 91.3875 62.0917 84.3596Z" fill="white" fill-opacity="0.38"/>
<path d="M62.0917 84.3596C53.6718 81.253 53.568 64.8835 63.4323 62.9337C85.016 58.6832 81.1975 91.3875 62.0917 84.3596Z" fill="white" fill-opacity="0.38"/>
</svg>
