<svg width="220" height="199" viewBox="0 0 220 199" fill="none" xmlns="http://www.w3.org/2000/svg">
<path d="M158.223 179.796C158.012 179.796 157.66 179.884 157.484 179.69C157.748 179.725 157.994 179.761 158.223 179.796Z" fill="#BEA06F"/>
<path d="M64.2709 132.63C59.1467 134.406 45.4936 139.041 42.0672 142.141V141.745C49.1488 137.696 55.122 134.609 63.0789 132.234C63.7035 132.494 66.1227 132.014 64.2665 132.63H64.2709Z" fill="#252F30"/>
<path d="M85.2826 141.152C85.265 151.622 85.3354 169.963 80.9237 179.202C78.9048 183.437 80.8357 175.97 80.9237 174.44C81.3108 167.659 79.6217 161.002 80.519 154.239H79.7273C78.6892 165.43 81.4471 173.508 78.0559 183.648H62.1024C64.3149 173.371 68.5155 161.002 69.4304 158.983C72.1354 152.906 78.7068 142.295 85.2782 141.152H85.2826Z" fill="white"/>
<path d="M74.9681 198.225C74.9505 198.313 74.9329 198.419 74.9152 198.507V198.172L74.9681 198.225Z" fill="#734126"/>
<path d="M110.095 143.171V165.535H94.9989L94.8053 143.135L86.2634 141.346C86.369 155.399 85.9643 170.772 79.7976 183.648H78.0602C81.4514 173.512 78.6935 165.43 79.7316 154.239H80.5233C79.626 161.002 81.3151 167.659 80.928 174.44C80.84 175.97 78.9091 183.432 80.928 179.202C85.3397 169.963 85.2693 151.622 85.2869 141.152C78.7155 142.296 72.1442 152.906 69.4391 158.983C68.5242 161.002 64.3236 173.371 62.1111 183.648H61.0203C61.2666 182.381 61.5481 181.102 61.8296 179.8H61.8472C63.743 171.436 66.558 162.831 67.838 159.792C71.1061 152.044 75.9577 144.683 83.3032 140.365C76.8374 138.153 70.1252 136.236 64.2708 132.635C65.907 132.089 64.2356 132.388 63.3911 132.3C63.2855 132.283 63.18 132.283 63.092 132.248L63.0744 132.23C61.1786 131.439 59.4192 130.036 57.5411 129.473C56.0808 127.718 55.0471 127.05 53.1821 127.085C53.1469 126.839 53.2349 126.505 53.1821 126.294C52.9886 125.625 49.2103 123.361 48.4185 123.132V123.114H48.4009C48.2602 122.921 48.1018 122.745 47.9611 122.569C47.8027 122.393 47.6444 122.253 47.5036 122.112C47.2045 121.848 46.9054 121.637 46.6063 121.461C44.8161 120.476 42.9512 121.32 40.0877 121.936C39.3312 121.813 38.4867 122.217 38.5043 121.531C39.4016 121.461 45.9026 120.23 46.0257 119.759C43.5494 115.701 40.8223 112.046 37.7125 108.463C36.4985 107.056 35.9047 105.195 33.7407 104.685C34.4444 103.208 37.0615 109.918 40.488 95.97C41.3325 92.4565 40.8399 90.5085 40.8751 90.2271C40.9103 90.0512 41.4381 89.3124 41.6668 86.6609C41.702 86.397 41.6492 86.1156 41.6668 85.8694C41.8779 83.1298 41.614 80.2144 42.4585 77.5409C42.5113 89.4707 43.7605 94.299 37.3079 106.282L46.8307 119.755L47.4113 120.353C48.1502 119.72 49.1179 119.72 49.9932 119.561H50.0108L50.3979 119.948C49.5006 120.3 48.6077 120.476 48.0095 121.338C52.4916 124.289 52.5443 126.1 57.5323 125.502L57.9193 125.889V125.907C56.4238 126.364 55.2846 126.171 55.5485 126.892C59.2741 128.528 62.8413 132.846 67.0419 131.443V131.848C63.6506 132.709 77.7435 137.872 81.5218 138.98C90.8511 141.737 100.413 143.127 109.954 143.179H110.095V143.171Z" fill="#734126"/>
<path d="M48.4141 123.119C47.9259 122.978 42.4805 122.31 40.0877 121.931C43.8968 121.118 45.9157 119.891 48.4141 123.119Z" fill="white"/>
<path d="M110.095 146.996V165.109C103.506 164.933 96.7936 164.528 95.1925 164.141C95.2277 157.167 94.3128 150.193 95.9842 143.324C99.1116 145.554 104.856 146.996 110.095 146.996Z" fill="white"/>
<path d="M110.095 143.993V146.996C104.86 146.996 99.1115 145.554 95.9842 143.324C100.695 144.081 105.384 144.116 110.095 143.993Z" fill="#C5A9A3"/>
<path d="M158.223 179.796C158.012 179.796 157.66 179.884 157.484 179.69C157.748 179.725 157.994 179.761 158.223 179.796Z" fill="white"/>
<path d="M74.9153 198.172L74.9682 198.225C74.9506 198.313 74.9329 198.419 74.9153 198.507V198.172Z" fill="#7AAAAE"/>
<path d="M109.954 183.643H79.802C85.9687 170.768 86.3734 155.395 86.2678 141.341L94.8098 143.131L95.0033 165.531H110.099" fill="#D0B696"/>
<path d="M90.2396 168.697C94.3479 167.308 95.3683 173.332 92.2234 173.851C88.8233 174.409 87.8952 169.493 90.2396 168.697Z" fill="#734126"/>
<path d="M91.0315 169.889C93.9169 169.049 93.002 173.798 90.4377 172.07C89.923 171.722 90.4377 170.065 91.0315 169.889Z" fill="#CFC098"/>
<path d="M61.4953 22.4425L61.0995 23.234C60.3781 22.4908 43.6945 13.8545 42.6653 13.7226C30.0679 12.0868 36.5249 45.8713 36.5205 52.9597C36.4634 52.9817 36.2874 54.147 35.3329 53.3555C35.3857 46.7859 33.8594 40.0625 33.7451 33.5369C33.6307 27.0728 32.9973 10.7281 43.0611 12.531C45.7662 13.0147 60.4397 22.0027 61.4953 22.4381V22.4425Z" fill="#734126"/>
<path d="M61.0994 23.2388C63.1272 25.3188 58.1568 28.797 57.5322 29.9755C52.9886 25.7101 48.5329 21.0226 42.8632 18.2831L56.7405 31.1628C56.6042 31.4266 57.4839 31.4222 56.7405 32.7502C49.5489 27.0777 40.9146 15.416 39.296 26.6072C38.5614 31.6905 39.8062 46.2411 42.0714 51.3772C36.6525 53.6374 36.7888 52.8591 36.5205 52.9646C36.5205 45.8761 30.0679 12.0873 42.6652 13.7275C43.6945 13.8594 60.3781 22.4957 61.0994 23.2388Z" fill="white"/>
<path d="M56.736 32.7497C55.7375 34.5306 54.9722 36.9227 54.3564 38.8927C50.6353 41.6762 47.7894 45.5327 46.4259 49.9915C44.7808 50.9941 42.5332 51.1832 42.0669 51.3767C39.8017 46.2362 38.5569 31.6856 39.2915 26.6067C40.9101 15.4155 49.5444 27.0772 56.736 32.7497Z" fill="#F7C1C3"/>
<path d="M57.5323 29.9753C56.9165 31.1361 56.7713 31.101 56.7405 31.1625L42.8632 18.2828C48.5329 21.0224 52.9886 25.7099 57.5323 29.9753Z" fill="#734126"/>
<path d="M84.4908 74.3659C77.5543 71.534 65.7883 75.1706 72.993 72.3827C76.2699 71.1163 82.4279 70.892 84.4908 74.3659Z" fill="#734126"/>
<path d="M41.6712 85.8604C41.6492 86.1198 41.6931 86.3925 41.6712 86.6519L39.8853 89.0309C34.5719 86.7926 29.2761 87.3863 24.4245 84.6731C21.3192 84.6204 8.63386 79.304 6.58415 77.9365C5.03587 76.9031 2.04927 74.788 1.62701 72.9807C2.60788 68.3328 36.5865 69.4145 41.8691 69.2166L41.6712 85.8648V85.8604Z" fill="#AC865C"/>
<path d="M110.095 70.2633V74.111C101.553 74.0934 93.0151 73.7944 84.4908 74.3572C82.4367 70.8966 76.2656 71.1076 72.9975 72.3916C65.8806 71.2659 58.4471 71.5298 51.5767 69.2124C71.0445 68.7375 90.5871 69.7577 110.09 70.2677L110.095 70.2633Z" fill="#FBD3AA"/>
<path d="M110.095 6.28676V70.2675C90.5916 69.7574 71.049 68.7372 51.5811 69.2122C41.6713 69.4584 42.4278 65.857 42.463 77.5406C41.6185 80.2098 41.8824 83.1252 41.6713 85.8691L41.8824 69.2165C36.5954 69.41 2.60801 68.3371 1.62714 72.9938C2.0494 74.7835 5.03599 76.9118 6.60187 77.9496C8.63838 79.304 21.3281 84.6247 24.4379 84.6775C29.2894 87.3994 34.5765 86.8014 39.9031 89.0352L41.6757 86.665C41.4469 89.3166 40.9191 90.0554 40.8839 90.2312C30.8157 88.9472 18.9881 85.7328 9.95794 81.1156C7.85105 80.0251 1.66233 76.9866 0.839803 74.9682C-3.36078 64.5862 29.3774 57.788 35.333 53.3775C36.3007 54.169 36.4766 52.9905 36.5294 52.9729C36.7933 52.8674 36.6526 53.6589 42.0803 51.3899C42.5378 51.1964 44.7854 51.0029 46.4393 50.0003C47.8116 45.5371 50.6574 41.6894 54.3654 38.8971C54.9812 36.9316 55.7553 34.5394 56.7538 32.7497C57.4927 31.4305 56.613 31.4305 56.7538 31.1667C56.7714 31.1139 56.9297 31.1491 57.5455 29.9882C58.1613 28.7922 63.1316 25.3139 61.1127 23.2428L61.4998 22.4512C61.9748 22.6447 62.5203 22.8734 62.8897 23.2428C68.6342 16.1983 74.9637 9.59354 80.3387 2.23245C86.7341 -2.10768 101.267 4.70813 110.103 6.29116L110.095 6.28676Z" fill="#8C663E"/>
<path d="M110.095 74.111V143.166C100.501 143.131 90.9038 141.741 81.5218 138.967C77.7435 137.859 63.6506 132.696 67.0419 131.834C102.96 121.347 103.154 119.24 67.0419 131.43C62.8413 132.837 59.2741 128.514 55.5485 126.879C55.2846 126.157 56.4282 126.351 57.9193 125.894C65.8982 123.418 83.136 121.852 92.219 121.131V120.34C84.9614 121.184 77.6511 121.729 70.4111 122.71C66.2281 123.273 59.4984 125.256 57.5323 125.485C52.5399 126.083 52.4872 124.271 48.0095 121.32C48.6077 120.459 49.505 120.283 50.3979 119.931C59.1113 116.541 83.853 118.594 94.2027 117.948C79.3885 116.242 64.5567 116.91 49.9932 119.548C49.1135 119.707 48.1502 119.707 47.4113 120.34L46.8307 119.742L37.3079 106.268C43.7561 94.2858 42.5113 89.4576 42.4585 77.5277C42.4233 65.8441 41.6668 69.4454 51.5767 69.1992C58.4472 71.5166 65.8807 71.2527 72.9975 72.3785C65.7927 75.1531 77.5499 71.5166 84.4908 74.344C93.0151 73.7812 101.553 74.0802 110.095 74.0978V74.111Z" fill="white"/>
<path d="M50.3934 119.949L49.9975 119.553C64.561 116.919 79.3884 116.259 94.2026 117.965C83.8485 118.607 59.1068 116.545 50.3934 119.949Z" fill="#3B3939"/>
<path d="M57.9282 125.894L57.5323 125.498C59.5072 125.26 66.2282 123.29 70.4156 122.723C77.6555 121.747 84.9659 121.202 92.219 120.344V121.136C83.1317 121.852 65.8983 123.422 57.9238 125.894H57.9282Z" fill="#3B3939"/>
<path d="M67.0462 131.839V131.443C103.158 119.245 102.951 121.351 67.0462 131.839Z" fill="#3B3939"/>
<path d="M110.095 116.765V124.108C109.901 123.95 109.778 123.88 109.672 123.915C109.18 126.214 103.435 127.604 101.94 127.481C101.729 127.463 98.4429 126.074 98.1614 125.898C93.8376 122.877 94.5414 116.73 95.597 118.554C95.3331 129.042 112.43 128.725 109.074 117.165C109.144 117.182 108.81 116.725 110.095 116.76V116.765Z" fill="#080807"/>
<path d="M74.1808 104.074C71.4625 102.628 69.1709 100.812 67.9525 97.8127C65.9995 93.0108 67.1871 87.5318 71.071 84.1546C73.9213 81.679 78.267 81.336 81.1612 83.3631C80.6818 84.0711 80.0968 84.7351 79.7405 85.5046C78.896 87.3119 79.0763 89.0884 80.4795 90.5395C81.8298 91.9335 83.4045 91.9774 85.0451 90.9265C86.5362 89.9723 86.5846 91.1815 86.6594 92.1182C87.2092 99.1187 81.865 105.257 75.1836 104.074C74.8582 104.017 74.5151 104.07 74.1808 104.074Z" fill="#43171D"/>
<path d="M61.8295 179.796C62.0407 179.796 62.3925 179.884 62.5685 179.69C62.3046 179.725 62.0583 179.761 61.8295 179.796Z" fill="#BEA06F"/>
<path d="M155.782 132.63C160.906 134.407 174.559 139.042 177.986 142.142V141.746C170.904 137.696 164.931 134.609 156.974 132.235C156.349 132.494 153.93 132.015 155.786 132.63H155.782Z" fill="#252F30"/>
<path d="M157.255 180.587C157.502 181.625 157.73 182.641 157.942 183.643H141.988C138.597 173.507 141.355 165.425 140.317 154.234H139.525C140.422 160.997 138.733 167.655 139.12 174.435C139.208 175.966 141.139 183.428 139.12 179.198C134.709 169.959 134.779 151.618 134.761 141.148C137.22 141.57 139.683 143.342 141.949 145.699C142.142 145.892 142.336 146.086 142.512 146.297C143.075 146.895 143.62 147.546 144.148 148.21C144.852 149.107 145.52 150.035 146.149 150.967C148.063 153.777 149.611 156.692 150.631 158.979C150.948 159.682 151.652 161.595 152.509 164.234C153.178 166.199 153.935 168.591 154.687 171.155C155.074 172.439 155.461 173.771 155.83 175.126C155.953 175.583 156.077 176.04 156.2 176.498C156.569 177.852 156.921 179.237 157.255 180.591V180.587Z" fill="white"/>
<path d="M145.133 198.172V198.507C145.116 198.419 145.098 198.313 145.08 198.225L145.133 198.172Z" fill="#734126"/>
<path d="M186.303 104.681C184.144 105.191 183.545 107.051 182.331 108.458C179.222 112.042 176.499 115.696 174.018 119.755C174.141 120.23 180.642 121.461 181.54 121.527C181.557 122.213 180.713 121.809 179.956 121.932C177.005 121.299 175.122 120.419 173.262 121.562C173.086 121.686 172.927 121.791 172.751 121.949C172.699 121.985 172.628 122.055 172.558 122.108C172.417 122.231 172.259 122.389 172.1 122.565C171.96 122.723 171.801 122.899 171.643 123.11L171.625 123.128C170.834 123.357 167.055 125.621 166.862 126.29C166.809 126.501 166.897 126.835 166.862 127.081C165.001 127.046 163.963 127.714 162.503 129.469C160.642 130.032 158.865 131.434 156.987 132.226H156.97L156.952 132.243C156.864 132.279 156.758 132.279 156.653 132.296C156.143 132.349 155.368 132.279 155.14 132.314C155.105 132.314 155.087 132.314 155.087 132.331C155.087 132.384 155.28 132.472 155.773 132.63C149.923 136.232 143.211 138.145 136.741 140.361C144.086 144.683 148.933 152.044 152.206 159.788C153.49 162.827 156.301 171.437 158.197 179.796C158.496 181.097 158.777 182.377 159.024 183.644H157.933C157.722 182.641 157.493 181.625 157.247 180.587C156.912 179.233 156.56 177.848 156.191 176.493C156.068 176.036 155.945 175.579 155.822 175.122C155.452 173.767 155.065 172.435 154.678 171.151C153.904 168.587 153.147 166.195 152.501 164.229C151.621 161.595 150.917 159.678 150.605 158.975C149.584 156.692 148.041 153.777 146.14 150.963C145.507 150.031 144.838 149.103 144.139 148.206C143.611 147.537 143.066 146.886 142.503 146.293C142.327 146.082 142.133 145.888 141.94 145.695C139.675 143.342 137.211 141.566 134.753 141.144C134.77 151.614 134.7 169.955 139.112 179.193C141.13 183.428 139.2 175.961 139.112 174.431C138.724 167.651 140.413 160.993 139.516 154.23H140.308C141.346 165.421 138.588 173.499 141.979 183.639H140.242C134.075 170.764 133.671 155.391 133.776 141.337L125.234 143.127L125.041 165.527H109.945V143.162H110.086C119.626 143.109 129.188 141.72 138.518 138.963C142.296 137.854 156.389 132.692 152.998 131.83V131.426C157.198 132.833 160.765 128.51 164.491 126.874C164.755 126.153 163.611 126.347 162.12 125.889V125.872L162.507 125.485H162.525C167.5 126.083 167.552 124.271 172.03 121.321C171.432 120.459 170.552 120.283 169.659 119.931L170.029 119.544H170.046C170.926 119.702 171.889 119.702 172.628 120.336L173.209 119.738L182.732 106.264C176.283 94.2816 177.528 89.4533 177.581 77.5234C178.426 80.1926 178.162 83.108 178.373 85.8519V86.0102C178.373 86.2213 178.338 86.4324 178.373 86.6434C178.601 89.295 179.129 90.0338 179.164 90.2097C179.2 90.4911 178.707 92.4391 179.552 95.9525C182.978 109.901 185.595 103.19 186.299 104.668L186.303 104.681Z" fill="#734126"/>
<path d="M171.638 123.119C172.127 122.978 177.572 122.31 179.965 121.932C176.156 121.118 174.137 119.892 171.638 123.119Z" fill="white"/>
<path d="M109.958 146.997V165.11C116.547 164.934 123.259 164.529 124.86 164.142C124.825 157.168 125.74 150.194 124.068 143.325C120.941 145.555 115.197 146.997 109.958 146.997Z" fill="white"/>
<path d="M109.958 143.994V146.997C115.192 146.997 120.941 145.555 124.068 143.325C119.358 144.082 114.669 144.117 109.958 143.994Z" fill="#C5A9A3"/>
<path d="M61.8295 179.796C62.0407 179.796 62.3925 179.884 62.5685 179.69C62.3046 179.726 62.0583 179.761 61.8295 179.796Z" fill="white"/>
<path d="M109.954 165.535H125.049L125.243 143.135L133.785 141.346C133.679 155.4 134.084 170.772 140.251 183.648H109.958" fill="#D0B696"/>
<path d="M145.133 198.172V198.507C145.116 198.419 145.098 198.313 145.08 198.225L145.133 198.172Z" fill="#7AAAAE"/>
<path d="M129.813 168.697C125.705 167.308 124.685 173.332 127.83 173.851C131.23 174.409 132.158 169.493 129.813 168.697Z" fill="#734126"/>
<path d="M129.022 169.889C126.136 169.049 127.051 173.798 129.615 172.07C130.13 171.722 129.615 170.065 129.022 169.889Z" fill="#CFC098"/>
<path d="M158.558 22.4425L158.954 23.234C159.675 22.4909 176.359 13.8546 177.388 13.7227C189.985 12.0869 183.528 45.8714 183.533 52.9598C183.59 52.9818 183.766 54.1471 184.72 53.3556C184.667 46.786 186.194 40.0625 186.308 33.5369C186.422 27.0729 187.056 10.7281 176.992 12.531C174.287 13.0147 159.614 22.0028 158.558 22.4381V22.4425Z" fill="#734126"/>
<path d="M158.953 23.2388C156.926 25.3188 161.896 28.797 162.521 29.9755C167.064 25.7101 171.52 21.0226 177.19 18.2831L163.312 31.1628C163.449 31.4266 162.569 31.4222 163.312 32.7502C170.504 27.0777 179.138 15.416 180.757 26.6072C181.492 31.6905 180.247 46.2411 177.982 51.3772C183.4 53.6374 183.264 52.8591 183.532 52.9646C183.532 45.8761 189.985 12.0873 177.388 13.7275C176.358 13.8594 159.675 22.4957 158.953 23.2388Z" fill="white"/>
<path d="M163.317 32.7497C164.315 34.5306 165.081 36.9227 165.696 38.8927C169.418 41.6762 172.263 45.5327 173.627 49.9915C175.272 50.9941 177.52 51.1832 177.986 51.3767C180.251 46.2362 181.496 31.6856 180.761 26.6067C179.143 15.4155 170.508 27.0772 163.317 32.7497Z" fill="#F7C1C3"/>
<path d="M162.521 29.9753C163.136 31.1361 163.282 31.101 163.312 31.1625L177.19 18.2828C171.52 21.0224 167.064 25.7099 162.521 29.9753Z" fill="#734126"/>
<path d="M135.562 74.3659C142.498 71.534 154.265 75.1706 147.06 72.3827C143.783 71.1163 137.625 70.892 135.562 74.3659Z" fill="#734126"/>
<path d="M178.382 85.8604C178.404 86.1198 178.36 86.3925 178.382 86.6519L180.167 89.0309C185.481 86.7926 190.777 87.3863 195.628 84.6731C198.734 84.6204 211.419 79.304 213.469 77.9365C215.017 76.9031 218.004 74.788 218.426 72.9807C217.445 68.3328 183.466 69.4145 178.184 69.2166L178.382 85.8648V85.8604Z" fill="#AC865C"/>
<path d="M109.958 70.2633V74.111C118.5 74.0934 127.038 73.7944 135.562 74.3572C137.616 70.8966 143.787 71.1076 147.055 72.3916C154.172 71.2659 161.606 71.5298 168.476 69.2124C149.008 68.7375 129.466 69.7577 109.963 70.2677L109.958 70.2633Z" fill="#FBD3AA"/>
<path d="M109.958 6.28679V70.2675C129.461 69.7574 149.004 68.7373 168.472 69.2122C178.382 69.4584 177.625 65.857 177.59 77.5407C178.435 80.2098 178.171 83.1252 178.382 85.8692L178.171 69.2166C183.458 69.4101 217.445 68.3371 218.426 72.9939C218.004 74.7836 215.017 76.9118 213.451 77.9496C211.415 79.304 198.725 84.6247 195.615 84.6775C190.764 87.3994 185.477 86.8014 180.15 89.0352L178.377 86.6651C178.606 89.3166 179.134 90.0554 179.169 90.2313C189.237 88.9473 201.065 85.7328 210.095 81.1157C212.202 80.0251 218.391 76.9866 219.213 74.9682C223.414 64.5862 190.676 57.788 184.72 53.3775C183.752 54.169 183.576 52.9905 183.524 52.9729C183.26 52.8674 183.4 53.6589 177.973 51.3899C177.515 51.1964 175.268 51.003 173.614 50.0004C172.241 45.5371 169.396 41.6895 165.688 38.8972C165.072 36.9316 164.298 34.5395 163.299 32.7498C162.56 31.4306 163.44 31.4306 163.299 31.1667C163.282 31.114 163.123 31.1491 162.508 29.9883C161.892 28.7922 156.921 25.3139 158.94 23.2428L158.553 22.4513C158.078 22.6448 157.533 22.8734 157.163 23.2428C151.419 16.1983 145.089 9.59357 139.714 2.23248C133.319 -2.10765 118.786 4.70816 109.95 6.29119L109.958 6.28679Z" fill="#8C663E"/>
<path d="M109.958 74.111V143.166C119.551 143.131 129.149 141.741 138.531 138.967C142.309 137.859 156.402 132.696 153.011 131.834C117.093 121.347 116.899 119.24 153.011 131.43C157.212 132.837 160.779 128.514 164.504 126.879C164.768 126.157 163.625 126.351 162.133 125.894C154.155 123.418 136.917 121.852 127.834 121.131V120.34C135.091 121.184 142.402 121.729 149.642 122.71C153.825 123.273 160.554 125.256 162.521 125.485C167.513 126.083 167.566 124.271 172.043 121.32C171.445 120.459 170.548 120.283 169.655 119.931C160.942 116.541 136.2 118.594 125.85 117.948C140.664 116.242 155.496 116.91 170.06 119.548C170.939 119.707 171.903 119.707 172.642 120.34L173.222 119.742L182.745 106.268C176.297 94.2858 177.542 89.4576 177.594 77.5277C177.629 65.8441 178.386 69.4454 168.476 69.1992C161.606 71.5166 154.172 71.2527 147.055 72.3785C154.26 75.1531 142.503 71.5166 135.562 74.344C127.038 73.7812 118.5 74.0802 109.958 74.0978V74.111Z" fill="white"/>
<path d="M169.659 119.949L170.055 119.553C155.492 116.919 140.664 116.259 125.85 117.965C136.204 118.607 160.946 116.545 169.659 119.949Z" fill="#3B3939"/>
<path d="M162.125 125.894L162.521 125.498C160.546 125.26 153.825 123.29 149.637 122.723C142.397 121.747 135.087 121.202 127.834 120.344V121.136C136.921 121.852 154.155 123.422 162.129 125.894H162.125Z" fill="#3B3939"/>
<path d="M153.006 131.839V131.443C116.895 119.245 117.101 121.351 153.006 131.839Z" fill="#3B3939"/>
<path d="M109.958 116.765V124.108C110.152 123.95 110.275 123.88 110.381 123.915C110.873 126.214 116.618 127.604 118.113 127.481C118.324 127.463 121.61 126.074 121.891 125.898C126.215 122.877 125.511 116.73 124.456 118.554C124.72 129.042 107.623 128.725 110.979 117.165C110.908 117.182 111.243 116.725 109.958 116.76V116.765Z" fill="#080807"/>
<path d="M139.991 104.215C137.273 102.768 134.981 100.952 133.763 97.9529C131.81 93.1511 132.998 87.672 136.882 84.2949C139.732 81.8192 144.078 81.4762 146.972 83.5034C146.492 84.2114 145.907 84.8753 145.551 85.6449C144.707 87.4522 144.887 89.2287 146.29 90.6798C147.64 92.0737 149.215 92.1177 150.856 91.0667C152.347 90.1125 152.395 91.3218 152.47 92.2584C153.02 99.2589 147.676 105.398 140.994 104.215C140.669 104.158 140.326 104.21 139.991 104.215Z" fill="#43171D"/>
<path d="M208.701 68.4073C202.292 67.884 191.128 67.7433 184.139 67.6334C159.442 67.1629 134.766 68.2974 110.095 68.9042H109.958C85.2869 68.2974 60.6156 67.1629 35.9135 67.6334C28.9242 67.7433 17.7608 67.884 11.3521 68.4073C6.95802 68.7943 -1.41237 71.9691 6.18388 67.22C13.7537 62.4973 45.4715 51.1171 54.9459 48.6019C70.0856 44.5959 88.4318 42.0543 104.126 41.4738C106.061 41.3903 108.023 41.3375 109.954 41.3375H110.09C112.025 41.3375 113.987 41.3947 115.918 41.4738C131.612 42.0543 149.954 44.5959 165.098 48.6019C174.577 51.1171 206.29 62.4929 213.86 67.22C221.456 71.9691 213.086 68.7943 208.692 68.4073H208.701Z" fill="#FBD3AA"/>
<path d="M163.528 38.3038C146.259 32.9171 128.19 30.4062 110.095 30.2655H109.958C91.8627 30.4018 73.7936 32.9171 56.525 38.3038C54.9239 37.974 60.1714 28.832 61.1126 27.3941C64.262 24.826 80.0659 3.63983 81.5306 3.03301C87.6929 0.381433 92.3905 14.6067 101.948 9.96755C93.6617 11.3747 92.804 6.59922 87.0859 2.2327C95.1792 2.83952 102.336 6.09792 110.046 7.31598C117.752 6.10232 124.882 2.83952 132.976 2.2327C127.258 6.59482 126.4 11.3747 118.113 9.96755C127.671 14.6067 132.369 0.381433 138.531 3.03301C139.996 3.63983 155.8 24.826 158.949 27.3941C159.89 28.832 165.138 37.974 163.537 38.3038H163.528Z" fill="#FBD3AA"/>
<path d="M110.979 117.161C110.895 117.187 111.229 116.747 110.095 116.774H109.958C108.828 116.747 109.158 117.187 109.074 117.161C103.633 116 101.478 110.78 102.718 108.652C103.022 108.129 106.448 107.161 109.958 106.941H110.095C113.605 107.161 117.031 108.129 117.335 108.652C118.579 110.78 116.424 116 110.979 117.161Z" fill="#F7C1C3"/>
</svg>
