<svg width="168" height="72" viewBox="0 0 168 72" fill="none" xmlns="http://www.w3.org/2000/svg">
<path d="M68.4748 11.5078C68.2574 11.6906 67.9791 11.8389 67.6371 11.9448C67.2951 12.0534 66.9001 12.1064 66.4521 12.1064C65.853 12.1064 65.3573 12.0322 64.9649 11.8813C64.5726 11.7329 64.3181 11.4734 64.2041 11.1079C63.7375 9.64326 63.3558 8.45937 63.0562 7.55093C62.7567 6.64513 62.5234 5.85058 62.3564 5.16726H62.2318C62.1814 6.14721 62.1443 7.04241 62.1204 7.85021C62.0966 8.65801 62.078 9.44462 62.0701 10.21C62.0621 10.9755 62.0435 11.7488 62.0197 12.5301C61.9958 13.3141 61.9587 14.1775 61.9083 15.1257C61.691 15.2078 61.41 15.2793 61.06 15.3376C60.7101 15.3958 60.3602 15.425 60.0102 15.425C59.2786 15.425 58.7086 15.3084 58.3004 15.0754C57.8921 14.8423 57.688 14.4185 57.688 13.8014L58.4117 1.0753C58.5443 0.85812 58.8359 0.62505 59.2865 0.37609C59.7345 0.127129 60.3681 0 61.1846 0C62.0674 0 62.7593 0.137723 63.2577 0.413169C63.7561 0.688615 64.1246 1.13357 64.3578 1.74802C64.5063 2.1453 64.6707 2.60349 64.8456 3.11996C65.0206 3.63642 65.1955 4.16877 65.3705 4.71701C65.5455 5.26525 65.7151 5.81085 65.8822 6.3538C66.0492 6.89409 66.1976 7.38142 66.3328 7.81313H66.4574C66.8577 6.41471 67.2554 5.06397 67.6557 3.75825C68.056 2.45253 68.4218 1.35869 68.7532 0.476733C69.0024 0.344307 69.3231 0.230421 69.7155 0.140371C70.1078 0.0503218 70.5452 0.00264852 71.0277 0.00264852C71.8442 0.00264852 72.5096 0.12448 73.0265 0.365496C73.5408 0.606511 73.843 0.950818 73.9252 1.40107C73.9915 1.73478 74.0631 2.2433 74.1373 2.93456C74.2115 3.62582 74.291 4.40449 74.3732 5.2679C74.4581 6.13397 74.5402 7.04771 74.6224 8.01442C74.7046 8.97848 74.7841 9.90811 74.8584 10.798C74.9352 11.6879 74.9962 12.501 75.0466 13.2426C75.0969 13.9842 75.1288 14.551 75.1473 14.9509C74.8637 15.1177 74.5694 15.2396 74.2592 15.3137C73.9491 15.3879 73.5567 15.425 73.0742 15.425C72.4407 15.425 71.9078 15.3164 71.4757 15.0992C71.0436 14.882 70.8103 14.4583 70.7759 13.8279C70.6751 12.0137 70.6141 10.3848 70.5876 8.9361C70.5638 7.48736 70.5267 6.27434 70.4763 5.29439H70.3517C70.1847 5.94328 69.9434 6.75902 69.628 7.73897C69.3099 8.71892 68.9281 9.97697 68.4775 11.5052L68.4748 11.5078Z" fill="#EE7E7F" fill-opacity="0.66"/>
<path d="M81.9392 5.03755V15.2026C81.7563 15.237 81.4885 15.2847 81.1227 15.335C80.7728 15.4012 80.4069 15.4171 80.0411 15.4171C79.6753 15.4171 79.3413 15.4012 79.0576 15.3509C78.758 15.3006 78.5089 15.1999 78.3074 15.0516C78.1086 14.9006 77.9574 14.702 77.8567 14.4371C77.7401 14.1882 77.6897 13.8386 77.6897 13.4228V3.27628C77.8726 3.24185 78.1404 3.19418 78.5062 3.14386C78.8561 3.07764 79.222 3.04321 79.5878 3.04321C79.9536 3.04321 80.2877 3.07764 80.5713 3.12532C80.8709 3.17564 81.1042 3.27628 81.303 3.4246C81.5018 3.57557 81.6688 3.7742 81.7696 4.03906C81.8862 4.28802 81.9366 4.62173 81.9366 5.03755H81.9392Z" fill="#EE7E7F" fill-opacity="0.66"/>
<path d="M89.6297 2.7227C90.5284 2.7227 91.3502 2.81275 92.0898 2.99815C92.8294 3.1809 93.463 3.45899 93.9879 3.83243C94.5128 4.20852 94.9157 4.67996 95.1994 5.25469C95.483 5.82942 95.6235 6.50479 95.6235 7.28875V12.8771C95.6235 13.3115 95.5016 13.6637 95.263 13.9392C95.0218 14.2146 94.7328 14.4503 94.4015 14.6516C93.3172 15.3005 91.7955 15.6236 89.8312 15.6236C88.9484 15.6236 88.1531 15.5389 87.4453 15.3747C86.7375 15.2078 86.1304 14.9589 85.6214 14.6251C85.1124 14.2941 84.7227 13.8703 84.447 13.3539C84.1713 12.84 84.0361 12.2388 84.0361 11.5582C84.0361 10.4114 84.3781 9.5294 85.0594 8.91229C85.7407 8.29784 86.7985 7.9138 88.23 7.76284L91.5013 7.41323V7.23843C91.5013 6.7564 91.2892 6.41209 90.865 6.20286C90.4409 5.99362 89.8285 5.89033 89.0279 5.89033C88.3943 5.89033 87.7793 5.95655 87.1802 6.08897C86.5811 6.2214 86.0403 6.38825 85.5578 6.58689C85.3404 6.43858 85.1575 6.2108 85.009 5.90093C84.8606 5.5937 84.7837 5.27323 84.7837 4.93951C84.7837 4.50781 84.8871 4.16085 85.0965 3.90394C85.306 3.64704 85.6241 3.42721 86.0588 3.24181C86.5413 3.05907 87.1113 2.92664 87.7714 2.84189C88.4288 2.75978 89.0491 2.71741 89.6323 2.71741L89.6297 2.7227ZM89.8312 12.5302C90.1148 12.5302 90.4276 12.501 90.767 12.4428C91.1089 12.3871 91.3634 12.305 91.5278 12.2044V10.2101L89.7304 10.3584C89.2639 10.3902 88.8821 10.4908 88.5826 10.6577C88.283 10.8245 88.1319 11.0735 88.1319 11.4072C88.1319 11.7409 88.2618 12.0111 88.5189 12.2176C88.7787 12.4269 89.2135 12.5302 89.8312 12.5302Z" fill="#EE7E7F" fill-opacity="0.66"/>
<path d="M98.2213 3.27359C98.3883 3.22326 98.6508 3.17294 99.0087 3.12262C99.3666 3.07495 99.7377 3.04846 100.119 3.04846C100.501 3.04846 100.814 3.07495 101.106 3.12262C101.397 3.17294 101.641 3.27359 101.843 3.4219C102.044 3.57022 102.195 3.77416 102.304 4.03371C102.413 4.29327 102.466 4.62963 102.466 5.04545V10.4113C102.466 11.0947 102.633 11.5793 102.964 11.8707C103.298 12.162 103.78 12.3077 104.414 12.3077C104.796 12.3077 105.109 12.2733 105.35 12.207C105.591 12.1408 105.779 12.0746 105.912 12.0084V3.27359C106.079 3.22326 106.341 3.17294 106.699 3.12262C107.057 3.07495 107.428 3.04846 107.81 3.04846C108.192 3.04846 108.504 3.07495 108.796 3.12262C109.088 3.17294 109.334 3.27359 109.533 3.4219C109.732 3.57022 109.886 3.77416 109.994 4.03371C110.103 4.29327 110.156 4.62963 110.156 5.04545V12.6335C110.156 13.4651 109.806 14.0901 109.106 14.506C108.523 14.8714 107.828 15.1522 107.02 15.3402C106.211 15.5309 105.334 15.6289 104.385 15.6289C103.486 15.6289 102.656 15.5283 101.901 15.3296C101.143 15.131 100.491 14.8238 99.9392 14.408C99.3904 13.9921 98.9663 13.4571 98.664 12.7977C98.3645 12.1408 98.2134 11.3463 98.2134 10.4166V3.27359H98.2213Z" fill="#EE7E7F" fill-opacity="0.66"/>
<path d="M14.0873 51.1269C13.4086 51.1269 12.608 51.1057 11.6908 51.066C10.7709 51.0263 9.82187 50.9468 8.84366 50.8276C7.86279 50.7085 6.89519 50.5575 5.93553 50.3774C4.97588 50.1973 4.09841 49.9483 3.29781 49.6279C1.10015 48.7883 0 47.3316 0 45.2552V17.2868C0 16.4472 0.230635 15.7983 0.689254 15.3401C1.14787 14.8793 1.7788 14.5112 2.57675 14.2331C3.93405 13.7537 5.63332 13.4041 7.67192 13.1843C9.71052 12.9671 11.8074 12.8558 13.9653 12.8558C19.0791 12.8558 23.0184 13.714 25.7754 15.4302C28.5325 17.1464 29.911 19.8029 29.911 23.3969C29.911 25.1926 29.3914 26.7394 28.3522 28.0371C27.313 29.3349 25.9133 30.2831 24.1557 30.8817C26.1545 31.4405 27.822 32.4602 29.1607 33.9354C30.4995 35.4133 31.1702 37.2699 31.1702 39.5052C31.1702 43.4568 29.7015 46.3834 26.7643 48.2798C23.827 50.1761 19.6013 51.1243 14.0846 51.1243L14.0873 51.1269ZM10.1904 28.0689H14.5671C16.2849 28.0689 17.5336 27.7511 18.3129 27.1102C19.0923 26.4745 19.482 25.5343 19.482 24.2974C19.482 23.2195 19.0314 22.3614 18.1327 21.7231C17.234 21.0848 15.8846 20.7643 14.0873 20.7643C13.4882 20.7643 12.7989 20.7829 12.0195 20.8252C11.2401 20.865 10.6304 20.9232 10.1904 21.0027V28.0689ZM10.1904 42.6808C10.7497 42.8397 11.4681 42.951 12.3482 43.0119C13.2284 43.0728 14.0661 43.1019 14.8667 43.1019C16.4652 43.1019 17.7934 42.7709 18.8537 42.114C19.9115 41.4545 20.4417 40.4269 20.4417 39.0285C20.4417 37.7122 20.0016 36.7746 19.1241 36.2158C18.244 35.6569 16.9053 35.3762 15.1079 35.3762H10.193V42.6808H10.1904Z" fill="#EE7E7F" fill-opacity="0.66"/>
<path d="M46.6969 50.1073C46.2569 50.1868 45.6074 50.2953 44.7485 50.4384C43.8896 50.5787 43.02 50.6476 42.1399 50.6476C41.2598 50.6476 40.4724 50.5867 39.7726 50.4675C39.0727 50.3483 38.4842 50.1073 38.0044 49.7497C37.5246 49.3895 37.1534 48.9022 36.8963 48.2825C36.6365 47.6627 36.5066 46.8549 36.5066 45.8564V11.1211C36.9467 11.0417 37.5961 10.9304 38.4551 10.79C39.314 10.6497 40.1835 10.5808 41.0636 10.5808C41.9437 10.5808 42.7311 10.6417 43.4309 10.7583C44.1281 10.8774 44.7193 11.1185 45.1991 11.4787C45.679 11.8389 46.0475 12.3262 46.3072 12.9459C46.567 13.5657 46.6969 14.3735 46.6969 15.372V50.1073Z" fill="#EE7E7F" fill-opacity="0.66"/>
<path d="M83.6992 35.0213C83.6992 37.4976 83.3175 39.7039 82.5593 41.6399C81.8011 43.576 80.7328 45.2022 79.3516 46.5211C77.9731 47.8375 76.3242 48.8386 74.4049 49.5166C72.4856 50.1946 70.3489 50.5363 67.9895 50.5363C65.6302 50.5363 63.4935 50.1761 61.5742 49.4583C59.6549 48.7406 58.0086 47.713 56.6301 46.3755C55.2516 45.038 54.1833 43.4118 53.4224 41.4943C52.6642 39.5794 52.2852 37.4235 52.2852 35.0266C52.2852 32.6297 52.6642 30.5347 53.4224 28.6198C54.1806 26.7023 55.2516 25.0761 56.6301 23.7386C58.0086 22.4011 59.6575 21.3735 61.5742 20.6557C63.4935 19.9353 65.6302 19.5778 67.9895 19.5778C70.3489 19.5778 72.4856 19.9485 74.4049 20.6848C76.3242 21.4238 77.9731 22.462 79.3516 23.7995C80.7301 25.137 81.7985 26.7632 82.5593 28.6807C83.3175 30.5982 83.6992 32.7144 83.6992 35.0292V35.0213ZM62.7167 35.0213C62.7167 37.4553 63.186 39.3225 64.1271 40.6202C65.0655 41.918 66.3751 42.5669 68.0532 42.5669C69.7312 42.5669 71.0196 41.9074 71.9183 40.5885C72.817 39.2721 73.2676 37.4155 73.2676 35.0186C73.2676 32.6217 72.809 30.7757 71.8891 29.4779C70.9692 28.1828 69.6703 27.5313 67.9922 27.5313C66.3141 27.5313 65.0151 28.1801 64.0953 29.4779C63.1754 30.7757 62.7167 32.6217 62.7167 35.0186V35.0213Z" fill="#EE7E7F" fill-opacity="0.66"/>
<path d="M116.815 28.7946C116.049 26.8639 114.983 25.2509 113.602 23.9028C112.237 22.5733 110.588 21.5244 108.655 20.7908C106.741 20.0598 104.61 19.6758 102.245 19.6758C99.8808 19.6758 97.7494 20.0413 95.8354 20.7564C93.9214 21.4715 92.2725 22.5044 90.8887 23.8498C89.5075 25.1794 88.4418 26.8109 87.6757 28.7231C86.9254 30.6354 86.5437 32.7833 86.5437 35.1272C86.5437 37.4712 86.9254 39.6853 87.6757 41.5976C88.4418 43.5098 89.5075 45.1413 90.8887 46.4708C92.2698 47.8189 93.9187 48.8492 95.8354 49.5643C97.7494 50.2794 99.8993 50.6449 102.245 50.6449C104.592 50.6449 106.741 50.2953 108.655 49.6146C110.588 48.9499 112.234 47.9514 113.602 46.6192C114.983 45.3055 116.049 43.674 116.815 41.7459C117.581 39.8151 117.947 37.6036 117.947 35.1246C117.947 32.8124 117.581 30.6989 116.815 28.7867V28.7946ZM104.878 28.3788C104.979 28.3444 105.077 28.3285 105.177 28.3285C106.492 28.2941 107.025 29.658 106.842 30.924V30.9399C106.691 32.0391 105.994 33.0535 104.812 33.019C102.497 32.9184 102.731 28.7761 104.878 28.3788ZM98.8336 28.2967C98.8495 28.2967 98.8495 28.3311 98.9158 28.3311C99.1491 28.2967 99.3824 28.3311 99.5812 28.3974C100.779 28.7628 101.379 30.5109 100.962 31.6577C100.379 33.2388 98.7806 33.4719 97.7812 32.0894C97.6486 31.9066 97.532 31.6736 97.4657 31.4405C97.084 30.2248 97.5161 28.5112 98.831 28.2967H98.8336ZM94.4038 36.2131C93.0731 35.016 93.1552 32.6191 94.6875 32.1874C94.7379 32.1715 94.9049 32.1212 94.9208 32.1212C95.8195 32.0205 96.636 32.7542 97.0363 33.5514C97.1529 33.7341 97.2192 33.9169 97.2696 34.0996C97.4869 34.8809 97.3358 35.5801 96.9859 36.0622C96.4371 36.8435 95.3529 37.0766 94.4038 36.2131ZM106.527 41.8704C105.944 42.0875 105.445 42.0531 104.994 41.9048C104.112 41.6214 103.346 40.9063 102.198 40.8745C101.098 40.8401 100.3 41.4572 99.4513 41.8068C98.8177 42.0902 98.1523 42.1882 97.3358 41.7406C96.4371 41.2427 95.9202 40.3104 96.0528 39.296C96.1694 38.4485 96.6201 37.9665 97.1529 37.5321C97.6036 37.1507 98.1364 36.817 98.5685 36.3164C99.5839 35.1855 99.9842 33.6043 101.848 33.3872C101.848 33.3872 101.864 33.4216 102.015 33.4031C104.146 33.3024 104.812 35.4821 105.694 36.4303C106.161 36.9627 106.81 37.3123 107.309 37.7784C107.441 37.8791 107.558 38.0115 107.675 38.1439C108.557 39.2748 108.192 41.2215 106.527 41.8704ZM108.542 36.8461C108.059 36.764 107.709 36.5124 107.492 36.1814C107.06 35.5484 107.091 34.5843 107.476 33.7844C107.826 32.9872 108.507 32.3542 109.408 32.3198C112.123 32.2192 111.19 37.3096 108.542 36.8435V36.8461Z" fill="#EE7E7F" fill-opacity="0.66"/>
<path d="M137.334 20.163C138.972 20.163 140.581 20.3935 142.161 20.8517C143.739 21.3125 145.107 22.0011 146.268 22.9175C147.466 22.1203 148.815 21.4608 150.313 20.9391C151.811 20.42 153.619 20.1604 155.737 20.1604C157.256 20.1604 158.743 20.359 160.204 20.759C161.662 21.1589 162.961 21.7866 164.101 22.6447C165.241 23.5028 166.147 24.6417 166.829 26.0587C167.507 27.4783 167.847 29.2051 167.847 31.2392V50.1046C167.446 50.2237 166.818 50.3456 165.959 50.4648C165.1 50.5839 164.209 50.6449 163.292 50.6449C162.375 50.6449 161.622 50.5839 160.925 50.4648C160.225 50.3456 159.637 50.1046 159.157 49.747C158.677 49.3868 158.308 48.8995 158.049 48.2797C157.789 47.66 157.659 46.8522 157.659 45.8537V31.5384C157.659 30.3413 157.32 29.4726 156.641 28.9349C155.962 28.3946 155.042 28.1271 153.884 28.1271C153.325 28.1271 152.725 28.2569 152.087 28.5165C151.448 28.776 150.968 29.0462 150.647 29.3243C150.687 29.4858 150.708 29.6342 150.708 29.7745V50.1072C150.268 50.2264 149.619 50.3482 148.76 50.4674C147.901 50.5866 147.031 50.6475 146.151 50.6475C145.271 50.6475 144.484 50.5866 143.784 50.4674C143.084 50.3482 142.495 50.1072 142.016 49.7497C141.536 49.3895 141.165 48.9021 140.907 48.2824C140.648 47.6626 140.518 46.8548 140.518 45.8563V31.5411C140.518 30.344 140.147 29.4752 139.41 28.9376C138.67 28.3973 137.782 28.1298 136.743 28.1298C136.024 28.1298 135.404 28.241 134.884 28.4609C134.365 28.6807 133.925 28.8899 133.567 29.0886V50.1098C133.167 50.229 132.538 50.3509 131.679 50.47C130.82 50.5892 129.93 50.6501 129.012 50.6501C128.095 50.6501 127.342 50.5892 126.645 50.47C125.945 50.3509 125.357 50.1098 124.877 49.7523C124.397 49.3921 124.026 48.9048 123.769 48.285C123.509 47.6653 123.379 46.8575 123.379 45.859V27.7722C123.379 26.6943 123.607 25.8362 124.068 25.1979C124.527 24.5596 125.155 23.961 125.956 23.4022C127.313 22.4434 129.005 21.6648 131.022 21.0662C133.039 20.4676 135.149 20.1683 137.347 20.1683L137.334 20.163Z" fill="#EE7E7F" fill-opacity="0.66"/>
<path d="M44.7353 65.2014C44.7008 65.9429 44.502 66.5971 44.1361 67.1639C43.7703 67.7307 43.256 68.173 42.5959 68.4829C41.9358 68.7954 41.1803 68.9517 40.332 68.9517C38.9323 68.9517 37.8295 68.4961 37.0236 67.585C36.2177 66.6739 35.8174 65.3868 35.8174 63.7235V63.1964C35.8174 62.1529 36.0003 61.2418 36.3635 60.4579C36.7267 59.6765 37.2489 59.07 37.9329 58.6436C38.6168 58.2172 39.4068 58.0027 40.3028 58.0027C41.5965 58.0027 42.6357 58.3417 43.4204 59.0224C44.2051 59.703 44.6531 60.638 44.7591 61.8324H42.1983C42.1797 61.1836 42.0154 60.7174 41.7079 60.4367C41.4003 60.1559 40.9311 60.0129 40.3028 60.0129C39.6746 60.0129 39.1947 60.2513 38.8978 60.7307C38.6009 61.21 38.4445 61.9702 38.4286 63.019V63.7712C38.4286 64.9074 38.5717 65.7178 38.8581 66.2051C39.1444 66.6925 39.6348 66.9361 40.332 66.9361C40.9232 66.9361 41.3738 66.7984 41.6866 66.5203C41.9995 66.2422 42.1638 65.8026 42.185 65.1961H44.7379L44.7353 65.2014Z" fill="#EE7E7F" fill-opacity="0.66"/>
<path d="M50.6258 63.125L49.8146 63.0667C49.0379 63.0667 48.5421 63.3104 48.3221 63.7977V68.8061H45.8567V60.8949H48.1683L48.2479 61.912C48.6614 61.136 49.2393 60.7493 49.9816 60.7493C50.2441 60.7493 50.4747 60.7784 50.6682 60.8367L50.6231 63.125H50.6258Z" fill="#EE7E7F" fill-opacity="0.66"/>
<path d="M55.2066 68.9517C53.9925 68.9517 53.009 68.5889 52.2587 67.8658C51.5085 67.1428 51.1321 66.1999 51.1321 65.0399V64.8359C51.1321 64.0281 51.2832 63.313 51.5827 62.6933C51.8823 62.0735 52.3197 61.5968 52.895 61.2578C53.4702 60.9188 54.1542 60.7493 54.9442 60.7493C56.0576 60.7493 56.9351 61.0936 57.5793 61.7848C58.2234 62.4735 58.5442 63.4349 58.5442 64.6691V65.6278H53.6426C53.73 66.0701 53.9236 66.4197 54.2205 66.674C54.5174 66.9283 54.9044 67.0554 55.3763 67.0554C56.1557 67.0554 56.7681 66.7826 57.2055 66.237L58.3321 67.5666C58.0246 67.9903 57.5899 68.3293 57.0252 68.5783C56.4632 68.8299 55.8561 68.9544 55.2066 68.9544V68.9517ZM54.9283 62.6483C54.2072 62.6483 53.7778 63.125 53.6399 64.0811H56.1292V63.8904C56.1398 63.4958 56.039 63.1886 55.8296 62.974C55.6202 62.7568 55.3206 62.6483 54.9283 62.6483Z" fill="#EE7E7F" fill-opacity="0.66"/>
<path d="M62.8812 67.0501C63.2285 67.0501 63.4963 66.9574 63.6871 66.7693C63.878 66.5813 63.9708 66.3191 63.9655 65.9827H66.2771C66.2771 66.8515 65.967 67.5613 65.344 68.1174C64.721 68.6736 63.9204 68.9517 62.9396 68.9517C61.789 68.9517 60.8798 68.5915 60.217 67.8711C59.5543 67.1507 59.2229 66.1496 59.2229 64.873V64.7697C59.2229 63.9699 59.3714 63.2654 59.6656 62.6536C59.9599 62.0417 60.3867 61.573 60.9434 61.2419C61.5001 60.9108 62.1575 60.7493 62.9184 60.7493C63.9469 60.7493 64.7634 61.0353 65.3705 61.6047C65.9749 62.1742 66.2771 62.9475 66.2771 63.9222H63.9655C63.9655 63.5117 63.8648 63.1991 63.6659 62.9793C63.4671 62.7595 63.1967 62.6509 62.86 62.6509C62.2212 62.6509 61.8474 63.0588 61.7413 63.8719C61.7069 64.1314 61.691 64.4863 61.691 64.9392C61.691 65.7338 61.7864 66.2847 61.9773 66.5919C62.1681 66.8991 62.4703 67.0527 62.8839 67.0527L62.8812 67.0501Z" fill="#EE7E7F" fill-opacity="0.66"/>
<path d="M71.1495 68.9517C69.9354 68.9517 68.9518 68.5889 68.2016 67.8658C67.4514 67.1428 67.075 66.1999 67.075 65.0399V64.8359C67.075 64.0281 67.2261 63.313 67.5256 62.6933C67.8252 62.0735 68.2626 61.5968 68.8379 61.2578C69.4131 60.9188 70.0971 60.7493 70.8871 60.7493C72.0005 60.7493 72.8779 61.0936 73.5221 61.7848C74.1663 62.4735 74.4871 63.4349 74.4871 64.6691V65.6278H69.5854C69.6729 66.0701 69.8664 66.4197 70.1633 66.674C70.4602 66.9283 70.8473 67.0554 71.3192 67.0554C72.0985 67.0554 72.7109 66.7826 73.1483 66.237L74.275 67.5666C73.9675 67.9903 73.5327 68.3293 72.9681 68.5783C72.4061 68.8299 71.799 68.9544 71.1495 68.9544V68.9517ZM70.8738 62.6483C70.1527 62.6483 69.7233 63.125 69.5854 64.0811H72.0747V63.8904C72.0853 63.4958 71.9846 63.1886 71.7751 62.974C71.5657 62.7568 71.2661 62.6483 70.8738 62.6483Z" fill="#EE7E7F" fill-opacity="0.66"/>
<path d="M82.3766 65.3551L83.6941 60.895H86.3345L83.1082 70.1277L82.9704 70.4641C82.5118 71.4864 81.7006 72.0002 80.5394 72.0002C80.2187 72.0002 79.8793 71.9526 79.5215 71.8546V70.0986H79.8422C80.1895 70.0986 80.452 70.0483 80.6375 69.9476C80.8231 69.847 80.9556 69.6695 81.0431 69.41L81.2419 68.8829L78.4902 60.8923H81.1253L82.3766 65.3524V65.3551Z" fill="#EE7E7F" fill-opacity="0.66"/>
<path d="M94.8519 66.5813C94.8519 66.3721 94.7433 66.2026 94.5232 66.0781C94.3032 65.9536 93.887 65.8185 93.272 65.6835C92.6569 65.5457 92.1506 65.3683 91.7503 65.1458C91.35 64.9233 91.0451 64.6558 90.8357 64.338C90.6263 64.0202 90.5203 63.6573 90.5203 63.2495C90.5203 62.5238 90.8198 61.9252 91.4216 61.4538C92.0207 60.9823 92.808 60.7493 93.7783 60.7493C94.8228 60.7493 95.6605 60.985 96.2967 61.4591C96.9303 61.9332 97.2484 62.5529 97.2484 63.3236H94.7751C94.7751 62.6906 94.4411 62.3728 93.773 62.3728C93.5132 62.3728 93.2985 62.4443 93.1209 62.5873C92.9459 62.7304 92.8584 62.9105 92.8584 63.125C92.8584 63.3395 92.9645 63.5223 93.1792 63.6573C93.3939 63.7951 93.7359 63.9063 94.2078 63.9937C94.6796 64.0811 95.0905 64.187 95.4484 64.3089C96.6387 64.7194 97.2352 65.453 97.2352 66.5098C97.2352 67.2302 96.9144 67.8182 96.2729 68.2711C95.6313 68.724 94.8016 68.9517 93.781 68.9517C93.1023 68.9517 92.4979 68.8299 91.965 68.5862C91.4322 68.3426 91.0186 68.0115 90.7217 67.593C90.4248 67.1746 90.2764 66.7323 90.2764 66.2688H92.5827C92.5933 66.6343 92.7153 66.9018 92.9485 67.0686C93.1818 67.2355 93.484 67.3202 93.8499 67.3202C94.1866 67.3202 94.4384 67.2514 94.6081 67.1163C94.7777 66.9786 94.8599 66.8011 94.8599 66.5813H94.8519Z" fill="#EE7E7F" fill-opacity="0.66"/>
<path d="M98.3645 58.8555C98.3645 58.5059 98.4917 58.2172 98.7462 57.9921C99.0007 57.767 99.3295 57.6558 99.7351 57.6558C100.141 57.6558 100.469 57.767 100.724 57.9921C100.978 58.2172 101.106 58.5033 101.106 58.8555C101.106 59.2078 100.978 59.4938 100.724 59.719C100.469 59.9441 100.141 60.0553 99.7351 60.0553C99.3295 60.0553 99.0007 59.9441 98.7462 59.719C98.4917 59.4938 98.3645 59.2078 98.3645 58.8555ZM100.984 68.806H98.5103V60.8949H100.984V68.806Z" fill="#EE7E7F" fill-opacity="0.66"/>
<path d="M106.333 68.9517C105.119 68.9517 104.136 68.5889 103.385 67.8658C102.635 67.1428 102.259 66.1999 102.259 65.0399V64.8359C102.259 64.0281 102.41 63.313 102.709 62.6933C103.009 62.0735 103.446 61.5968 104.022 61.2578C104.597 60.9188 105.281 60.7493 106.071 60.7493C107.184 60.7493 108.062 61.0936 108.706 61.7848C109.35 62.4735 109.671 63.4349 109.671 64.6691V65.6278H104.769C104.857 66.0701 105.05 66.4197 105.347 66.674C105.644 66.9283 106.031 67.0554 106.503 67.0554C107.282 67.0554 107.895 66.7826 108.332 66.237L109.459 67.5666C109.151 67.9903 108.717 68.3293 108.152 68.5783C107.59 68.8299 106.983 68.9544 106.333 68.9544V68.9517ZM106.055 62.6483C105.334 62.6483 104.904 63.125 104.767 64.0811H107.256V63.8904C107.266 63.4958 107.166 63.1886 106.956 62.974C106.747 62.7568 106.447 62.6483 106.055 62.6483Z" fill="#EE7E7F" fill-opacity="0.66"/>
<path d="M112.926 60.8949L113.006 61.8219C113.552 61.1041 114.305 60.7466 115.267 60.7466C116.092 60.7466 116.707 60.9929 117.115 61.4855C117.523 61.9781 117.733 62.7197 117.749 63.7076V68.8034H115.275V63.8109C115.275 63.411 115.196 63.117 115.034 62.929C114.872 62.7409 114.581 62.6482 114.156 62.6482C113.674 62.6482 113.316 62.8389 113.08 63.2176V68.8034H110.615V60.8922H112.926V60.8949Z" fill="#EE7E7F" fill-opacity="0.66"/>
<path d="M121.985 58.927V60.8949H123.286V62.6058H121.985V66.2237C121.985 66.5203 122.038 66.7295 122.146 66.8461C122.252 66.9626 122.467 67.0209 122.783 67.0209C123.027 67.0209 123.231 67.0076 123.398 66.9759V68.7371C122.955 68.8775 122.491 68.949 122.009 68.949C121.16 68.949 120.532 68.7504 120.129 68.3504C119.726 67.9505 119.522 67.344 119.522 66.5309V62.6058H118.512V60.8949H119.522V58.927H121.987H121.985Z" fill="#EE7E7F" fill-opacity="0.66"/>
<path d="M128.087 68.9517C126.873 68.9517 125.89 68.5889 125.139 67.8658C124.389 67.1428 124.013 66.1999 124.013 65.0399V64.8359C124.013 64.0281 124.164 63.313 124.463 62.6933C124.763 62.0735 125.2 61.5968 125.778 61.2578C126.356 60.9188 127.037 60.7493 127.827 60.7493C128.941 60.7493 129.818 61.0936 130.463 61.7848C131.107 62.4735 131.427 63.4349 131.427 64.6691V65.6278H126.526C126.613 66.0701 126.807 66.4197 127.104 66.674C127.401 66.9283 127.788 67.0554 128.26 67.0554C129.039 67.0554 129.649 66.7826 130.089 66.237L131.215 67.5666C130.908 67.9903 130.473 68.3293 129.908 68.5783C129.346 68.8299 128.739 68.9544 128.09 68.9544L128.087 68.9517ZM127.812 62.6483C127.09 62.6483 126.661 63.125 126.523 64.0811H129.01V63.8904C129.02 63.4958 128.92 63.1886 128.71 62.974C128.501 62.7568 128.201 62.6483 127.812 62.6483Z" fill="#EE7E7F" fill-opacity="0.66"/>
</svg>
