<svg width="186" height="146" viewBox="0 0 186 146" fill="none" xmlns="http://www.w3.org/2000/svg">
<path d="M17.7522 43.332C-10.692 42.235 -0.856589 95.7261 26.903 90.8299C51.406 86.5073 41.8625 44.2629 17.7522 43.332Z" fill="white" fill-opacity="0.38"/>
<path d="M62.2682 1.32411C36.2753 0.654841 39.2501 51.5494 66.0131 50.5681C91.5126 49.6322 87.5362 1.97325 62.2682 1.32411Z" fill="white" fill-opacity="0.38"/>
<path d="M97.2106 54.5636C116.73 56.7123 121.079 73.4541 131.74 85.3399C141.737 96.4809 155.835 100.225 158.035 116.534C159.485 127.297 154.044 137.035 144.641 142.238C124.547 153.349 113.66 132.46 93.4707 133.17C75.4307 133.804 66.4007 150.777 48.1242 143.732C30.5322 136.954 26.6463 116.368 35.9784 104.472C41.3793 97.588 50.4396 93.5925 56.8623 86.5878C66.1239 76.4935 72.9945 53.6679 95.5546 54.7297C97.0243 54.8001 97.1351 54.5535 97.2206 54.5636H97.2106Z" fill="white" fill-opacity="0.38"/>
<path d="M170.02 41.2538C158.453 40.0561 148.164 51.7406 145.305 62.0514C139.361 83.5132 159.288 98.846 175.426 84.263C189.368 71.6627 188.598 46.4821 172.511 41.923C171.978 41.772 170.146 41.2688 170.015 41.2588L170.02 41.2538Z" fill="white" fill-opacity="0.38"/>
<path d="M128.831 0.911476C145.401 3.66906 148.587 28.7842 139.899 40.8411C129.364 55.4543 112.543 53.0037 106.533 36.2669C101.489 22.2174 110.917 -0.598143 128 1.32915C128.665 1.40463 128.786 0.906444 128.831 0.911476Z" fill="white" fill-opacity="0.38"/>
</svg>
